<?xml version="1.0" encoding="UTF-8" standalone="no"?>
<!-- Created with Inkscape (http://www.inkscape.org/) -->

<svg
   width="1800"
   height="1800"
   viewBox="0 0 180 180"
   version="1.1"
   id="svg5"
   inkscape:version="1.2.2 (732a01da63, 2022-12-09)"
   sodipodi:docname="logo.svg"
   inkscape:export-filename="logo_dark.png"
   inkscape:export-xdpi="48"
   inkscape:export-ydpi="48"
   xmlns:inkscape="http://www.inkscape.org/namespaces/inkscape"
   xmlns:sodipodi="http://sodipodi.sourceforge.net/DTD/sodipodi-0.dtd"
   xmlns:xlink="http://www.w3.org/1999/xlink"
   xmlns="http://www.w3.org/2000/svg"
   xmlns:svg="http://www.w3.org/2000/svg">
  <sodipodi:namedview
     id="namedview7"
     pagecolor="#ffffff"
     bordercolor="#000000"
     borderopacity="0.25"
     inkscape:showpageshadow="2"
     inkscape:pageopacity="0.0"
     inkscape:pagecheckerboard="0"
     inkscape:deskcolor="#d1d1d1"
     inkscape:document-units="mm"
     showgrid="false"
     inkscape:zoom="0.17677669"
     inkscape:cx="1730.9975"
     inkscape:cy="924.8957"
     inkscape:window-width="1920"
     inkscape:window-height="991"
     inkscape:window-x="-9"
     inkscape:window-y="-9"
     inkscape:window-maximized="1"
     inkscape:current-layer="layer2" />
  <defs
     id="defs2">
    <rect
       x="108.59644"
       y="351.45758"
       width="400.81961"
       height="1184.6885"
       id="rect275" />
    <clipPath
       clipPathUnits="userSpaceOnUse"
       id="clipPath320">
      <use
         x="0"
         y="0"
         xlink:href="#g316"
         id="use322"
         transform="translate(-2.7923375,-2.4432953)" />
    </clipPath>
  </defs>
  <g
     inkscape:label="light"
     inkscape:groupmode="layer"
     id="layer1"
     style="display:none">
    <g
       inkscape:label="Clip"
       id="g316"
       transform="translate(2.7923375,2.4432953)">
      <path
         d="m 85.19327,84.158902 q 4.028,0 9.12,1.52 V 114.1789 h 13.3 V 73.898902 h -11.78 l -0.76,3.8 q -3.572,-2.356 -7.296,-3.42 -3.8,-1.14 -6.384,-1.14 h -3.42 q -5.167998,0 -8.283998,3.116 -3.116,3.116 -3.116,8.284 V 114.1789 H 79.87327 V 86.818902 q 0,-1.14 0.76,-1.9 0.76,-0.76 1.9,-0.76 z"
         style="font-size:76px;font-family:'Russo One';-inkscape-font-specification:'Russo One';display:inline;fill:#000000;fill-opacity:1;stroke:none;stroke-width:1.88976;stroke-dasharray:none;stroke-opacity:1"
         id="path388"
         inkscape:label="letra n"
         transform="translate(0.0942527,-1.0191563)" />
    </g>
  </g>
  <g
     inkscape:label="dark"
     inkscape:groupmode="layer"
     id="g3398"
     style="display:inline">
    <rect
       style="opacity:1;fill:#000000;fill-opacity:1;stroke:none;stroke-width:1.90155;stroke-dasharray:none;stroke-opacity:1"
       id="rect3452"
       width="180"
       height="180"
       x="8.059098e-06"
       y="2.7107276e-06" />
    <g
       inkscape:label="Clip"
       id="g3463"
       transform="translate(2.7923375,2.4432953)"
       style="display:inline;stroke:#fffffe;stroke-width:1.88976;stroke-dasharray:none;stroke-opacity:1">
      <path
         d="m 85.19327,84.158902 q 4.028,0 9.12,1.52 V 114.1789 h 13.3 V 73.898902 h -11.78 l -0.76,3.8 q -3.572,-2.356 -7.296,-3.42 -3.8,-1.14 -6.384,-1.14 h -3.42 q -5.167998,0 -8.283998,3.116 -3.116,3.116 -3.116,8.284 V 114.1789 H 79.87327 V 86.818902 q 0,-1.14 0.76,-1.9 0.76,-0.76 1.9,-0.76 z"
         style="font-size:76px;font-family:'Russo One';-inkscape-font-specification:'Russo One';display:inline;fill:#ffffff;fill-opacity:1;stroke:#fffffe;stroke-width:1.88976;stroke-dasharray:none;stroke-opacity:1"
         id="path3461"
         inkscape:label="letra n"
         transform="translate(0.0942527,-1.0191563)" />
    </g>
  </g>
  <g
     inkscape:label="main"
     inkscape:groupmode="layer"
     id="g10203"
     style="display:none">
    <rect
       style="opacity:1;fill:#1e1e1e;fill-opacity:1;stroke:none;stroke-width:1.90155;stroke-dasharray:none;stroke-opacity:1"
       id="rect10197"
       width="180"
       height="180"
       x="8.059098e-06"
       y="2.7107276e-06" />
    <g
       inkscape:label="Clip"
       id="g10201"
       transform="translate(2.7923375,2.4432953)"
       style="display:inline;stroke:#fffffe;stroke-width:1.88976;stroke-dasharray:none;stroke-opacity:1">
      <path
         d="m 85.19327,84.158902 q 4.028,0 9.12,1.52 V 114.1789 h 13.3 V 73.898902 h -11.78 l -0.76,3.8 q -3.572,-2.356 -7.296,-3.42 -3.8,-1.14 -6.384,-1.14 h -3.42 q -5.167998,0 -8.283998,3.116 -3.116,3.116 -3.116,8.284 V 114.1789 H 79.87327 V 86.818902 q 0,-1.14 0.76,-1.9 0.76,-0.76 1.9,-0.76 z"
         style="font-size:76px;font-family:'Russo One';-inkscape-font-specification:'Russo One';display:inline;fill:#ffffff;fill-opacity:1;stroke:#fffffe;stroke-width:1.88976;stroke-dasharray:none;stroke-opacity:1"
         id="path10199"
         inkscape:label="letra n"
         transform="translate(0.0942527,-1.0191563)" />
    </g>
  </g>
  <g
     inkscape:groupmode="layer"
     id="layer3"
     inkscape:label="l-n">
    <g
       aria-label="Lnx"
       id="g3459"
       style="font-size:76px;display:inline;fill:#ff1744;fill-opacity:1;stroke:#ff1744;stroke-width:1.88976;stroke-dasharray:none;stroke-opacity:0.0689655"
       transform="translate(2.8865902,1.424139)"
       inkscape:label="lnx">
      <path
         d="m 34.273289,103.5389 h 27.74 v 10.64 h -41.42 V 60.978902 h 13.68 z"
         style="font-family:'Russo One';-inkscape-font-specification:'Russo One';display:inline;fill:#ff1744;fill-opacity:1;stroke:#ff1744;stroke-width:1.88976;stroke-dasharray:none;stroke-opacity:0.0689655"
         id="path3455"
         inkscape:label="letra l" />
      <path
         d="m 140.01321,73.898902 h 14.82 l -12.16,20.14 12.54,20.139998 h -14.82 l -6.84,-12.16 -6.84,12.16 h -14.82 l 12.54,-20.139998 -12.16,-20.14 h 14.82 l 6.46,12.16 z"
         style="font-family:'Russo One';-inkscape-font-specification:'Russo One';display:inline;fill:#ff1744;fill-opacity:1;stroke:#ff1744;stroke-width:1.88976;stroke-dasharray:none;stroke-opacity:0.0689655"
         id="path3457"
         inkscape:label="letra x" />
    </g>
  </g>
  <g
     inkscape:groupmode="layer"
     id="layer2"
     inkscape:label="init"
     style="display:none">
    <text
       xml:space="preserve"
       style="font-size:76px;fill:#000000;stroke-width:0.832576"
       x="50.596725"
       y="157.83986"
       id="text113-7"
       inkscape:label="nombre"><tspan
         sodipodi:role="line"
         id="tspan111-7"
         style="font-style:normal;font-variant:normal;font-weight:normal;font-stretch:normal;font-size:76px;font-family:'Russo One';-inkscape-font-specification:'Russo One';stroke-width:0.832576"
         x="50.596725"
         y="157.83986">Lnx</tspan></text>
  </g>
</svg>
